# xmcd
#
# Track frame offsets: 
#        150
#        16655
#        35952
#        55297
#        76335
#        94455
#        119604
#        140807
#        150155
#        166425
#        185820
#        204942
#        217347
#        231725
#        246412
#        262895
#        279092
#        296295
#
# Disc length: 4166 seconds
#
# Revision: 0
# Processed by: cddbd v1.5.2PL0 Copyright (c) Steve Scherf et al.
# Submitted via: ExactAudioCopyFreeDBPlugin 1.0
#
DISCID=11104412
DTITLE=多位藝術家 - Movie Hits
DYEAR=2001
DGENRE=Pop
TTITLE0=Coco Lee - A Love Before Time
TTITLE1=Ronan Keating - When You Say Nothing At All
TTITLE2=Phil Collins - You'll Be In My Heart
TTITLE3=Celine Dion - My Heart Will Go On
TTITLE4=Lionel Richie - Say You Say Me
TTITLE5=George Benson - The Greatest Love Of All
TTITLE6=Eric Clapton - Blue Eyes Blue
TTITLE7=Bill Withers - Ain't No Sunshine
TTITLE8=Righteous Brothers - Unchained Melody
TTITLE9=Annie Lennox - Love Song For A Vampire
TTITLE10=Julee Cruise - Falling
TTITLE11=Harry Nilsson - Everybody's Talking
TTITLE12=Sonny and Cher - I Got You Babe
TTITLE13=Jimmy Cliff - I Can See Clearly Now
TTITLE14=Leo Sayer - You Make Me Feel Like Dancing
TTITLE15=Diana King - I Say A Little Prayer
TTITLE16=Prince - When Doves Cry
TTITLE17=Eric Serra feat lnva Mulla Tchako - The Diva Dance
EXTD=
EXTT0=
EXTT1=
EXTT2=
EXTT3=
EXTT4=
EXTT5=
EXTT6=
EXTT7=
EXTT8=
EXTT9=
EXTT10=
EXTT11=
EXTT12=
EXTT13=
EXTT14=
EXTT15=
EXTT16=
EXTT17=
PLAYORDER=
